<?xml version="1.0" encoding="UTF-8" standalone="no"?>
<svg
   xmlns:dc="http://purl.org/dc/elements/1.1/"
   xmlns:cc="http://creativecommons.org/ns#"
   xmlns:rdf="http://www.w3.org/1999/02/22-rdf-syntax-ns#"
   xmlns:svg="http://www.w3.org/2000/svg"
   xmlns="http://www.w3.org/2000/svg"
   xmlns:sodipodi="http://sodipodi.sourceforge.net/DTD/sodipodi-0.dtd"
   xmlns:inkscape="http://www.inkscape.org/namespaces/inkscape"
   version="1.1"
   width="134"
   height="249"
   viewBox="8 1 134 249"
   id="svg285"
   sodipodi:docname="shoalder.svg"
   inkscape:version="0.92.1 r15371">
  <metadata
     id="metadata289">
    <rdf:RDF>
      <cc:Work
         rdf:about="">
        <dc:format>image/svg+xml</dc:format>
        <dc:type
           rdf:resource="http://purl.org/dc/dcmitype/StillImage" />
      </cc:Work>
    </rdf:RDF>
  </metadata>
  <sodipodi:namedview
     pagecolor="#ffffff"
     bordercolor="#666666"
     borderopacity="1"
     objecttolerance="10"
     gridtolerance="10"
     guidetolerance="10"
     inkscape:pageopacity="0"
     inkscape:pageshadow="2"
     inkscape:window-width="1366"
     inkscape:window-height="705"
     id="namedview287"
     showgrid="false"
     inkscape:zoom="0.94779116"
     inkscape:cx="67"
     inkscape:cy="212.01309"
     inkscape:window-x="-8"
     inkscape:window-y="-8"
     inkscape:window-maximized="1"
     inkscape:current-layer="svg285" />
  <defs
     id="defs197">
    <linearGradient
       id="grad_1"
       y2="1">
      <stop
         offset="0"
         stop-color="#282828"
         stop-opacity="1"
         id="stop2" />
      <stop
         offset="1"
         stop-color="#000000"
         stop-opacity="1"
         id="stop4" />
    </linearGradient>
    <linearGradient
       id="grad_2"
       x2="1">
      <stop
         offset="0"
         stop-color="#1A661B"
         stop-opacity="1"
         id="stop7" />
      <stop
         offset="1"
         stop-color="#000000"
         stop-opacity="1"
         id="stop9" />
    </linearGradient>
    <radialGradient
       id="grad_3"
       cx="0.1566"
       cy="0.22719999999999999"
       r="1.09642">
      <stop
         offset="0"
         stop-color="#282828"
         stop-opacity="1"
         id="stop12" />
      <stop
         offset="1"
         stop-color="#000000"
         stop-opacity="1"
         id="stop14" />
    </radialGradient>
    <linearGradient
       id="grad_4"
       x2="1">
      <stop
         offset="0"
         stop-color="#000000"
         stop-opacity="1"
         id="stop17" />
      <stop
         offset="1"
         stop-color="#2B2B2B"
         stop-opacity="1"
         id="stop19" />
    </linearGradient>
    <radialGradient
       id="grad_5"
       cx="0.18780000000000002"
       cy="0.8081"
       r="1.05586">
      <stop
         offset="0"
         stop-color="#282828"
         stop-opacity="1"
         id="stop22" />
      <stop
         offset="1"
         stop-color="#000000"
         stop-opacity="1"
         id="stop24" />
    </radialGradient>
    <radialGradient
       id="grad_6"
       cx="0.5798"
       cy="0.8545"
       r="1.11085">
      <stop
         offset="0"
         stop-color="#282828"
         stop-opacity="1"
         id="stop27" />
      <stop
         offset="1"
         stop-color="#000000"
         stop-opacity="1"
         id="stop29" />
    </radialGradient>
    <linearGradient
       id="grad_7"
       x2="1">
      <stop
         offset="0"
         stop-color="#000000"
         stop-opacity="1"
         id="stop32" />
      <stop
         offset="1"
         stop-color="#2B2B2B"
         stop-opacity="1"
         id="stop34" />
    </linearGradient>
    <linearGradient
       id="grad_8"
       x2="1">
      <stop
         offset="0"
         stop-color="#2B2B2B"
         stop-opacity="1"
         id="stop37" />
      <stop
         offset="1"
         stop-color="#000000"
         stop-opacity="1"
         id="stop39" />
    </linearGradient>
    <radialGradient
       id="grad_9"
       cx="0.2414"
       cy="0.4606"
       r="0.98618">
      <stop
         offset="0"
         stop-color="#1A661B"
         stop-opacity="1"
         id="stop42" />
      <stop
         offset="1"
         stop-color="#000000"
         stop-opacity="1"
         id="stop44" />
    </radialGradient>
    <radialGradient
       id="grad_10"
       cx="0.426"
       cy="0.2257"
       r="1.00659">
      <stop
         offset="0"
         stop-color="#282828"
         stop-opacity="1"
         id="stop47" />
      <stop
         offset="1"
         stop-color="#000000"
         stop-opacity="1"
         id="stop49" />
    </radialGradient>
    <linearGradient
       id="grad_11"
       y2="1">
      <stop
         offset="0"
         stop-color="#1A661B"
         stop-opacity="1"
         id="stop52" />
      <stop
         offset="1"
         stop-color="#000000"
         stop-opacity="1"
         id="stop54" />
    </linearGradient>
    <radialGradient
       id="grad_12"
       cx="0.2869"
       cy="0.3457"
       r="0.92703">
      <stop
         offset="0"
         stop-color="#1A661B"
         stop-opacity="1"
         id="stop57" />
      <stop
         offset="1"
         stop-color="#000000"
         stop-opacity="1"
         id="stop59" />
    </radialGradient>
    <radialGradient
       id="grad_13"
       cx="0.41479999999999995"
       cy="0.18510000000000001"
       r="1.05937">
      <stop
         offset="0"
         stop-color="#282828"
         stop-opacity="1"
         id="stop62" />
      <stop
         offset="1"
         stop-color="#000000"
         stop-opacity="1"
         id="stop64" />
    </radialGradient>
    <radialGradient
       id="grad_14"
       cx="0.9005"
       cy="0.4596"
       r="1.17065">
      <stop
         offset="0"
         stop-color="#1A661B"
         stop-opacity="1"
         id="stop67" />
      <stop
         offset="1"
         stop-color="#000000"
         stop-opacity="1"
         id="stop69" />
    </radialGradient>
    <radialGradient
       id="grad_15"
       cx="0.7012"
       cy="0.0466"
       r="1.23942">
      <stop
         offset="0"
         stop-color="#000000"
         stop-opacity="1"
         id="stop72" />
      <stop
         offset="1"
         stop-color="#343434"
         stop-opacity="1"
         id="stop74" />
    </radialGradient>
    <radialGradient
       id="grad_16"
       cx="0.8275"
       cy="0.0461"
       r="1.24007">
      <stop
         offset="0"
         stop-color="#000000"
         stop-opacity="1"
         id="stop77" />
      <stop
         offset="1"
         stop-color="#343434"
         stop-opacity="1"
         id="stop79" />
    </radialGradient>
    <radialGradient
       id="grad_17"
       cx="0.5638000000000001"
       cy="0.8297"
       r="1.07861">
      <stop
         offset="0"
         stop-color="#282828"
         stop-opacity="1"
         id="stop82" />
      <stop
         offset="1"
         stop-color="#000000"
         stop-opacity="1"
         id="stop84" />
    </radialGradient>
    <radialGradient
       id="grad_18"
       cx="0.2938"
       cy="0.17059999999999997"
       r="1.07822">
      <stop
         offset="0"
         stop-color="#FF9400"
         stop-opacity="1"
         id="stop87" />
      <stop
         offset="1"
         stop-color="#663B00"
         stop-opacity="1"
         id="stop89" />
    </radialGradient>
    <radialGradient
       id="grad_19"
       cx="0.2957"
       cy="0.3589"
       r="0.91559">
      <stop
         offset="0"
         stop-color="#282828"
         stop-opacity="1"
         id="stop92" />
      <stop
         offset="1"
         stop-color="#000000"
         stop-opacity="1"
         id="stop94" />
    </radialGradient>
    <radialGradient
       id="grad_20"
       cx="0.39909999999999995"
       cy="0.3948"
       r="0.78676">
      <stop
         offset="0"
         stop-color="#282828"
         stop-opacity="1"
         id="stop97" />
      <stop
         offset="1"
         stop-color="#000000"
         stop-opacity="1"
         id="stop99" />
    </radialGradient>
    <linearGradient
       id="grad_21"
       x2="1">
      <stop
         offset="0"
         stop-color="#1A661B"
         stop-opacity="1"
         id="stop102" />
      <stop
         offset="1"
         stop-color="#000000"
         stop-opacity="1"
         id="stop104" />
    </linearGradient>
    <radialGradient
       id="grad_22"
       cx="0.109"
       cy="0.5567"
       r="1.1582999999999999">
      <stop
         offset="0"
         stop-color="#282828"
         stop-opacity="1"
         id="stop107" />
      <stop
         offset="1"
         stop-color="#000000"
         stop-opacity="1"
         id="stop109" />
    </radialGradient>
    <radialGradient
       id="grad_23"
       cx="0.1242"
       cy="0.16010000000000002"
       r="1.1385399999999999">
      <stop
         offset="0"
         stop-color="#282828"
         stop-opacity="1"
         id="stop112" />
      <stop
         offset="1"
         stop-color="#000000"
         stop-opacity="1"
         id="stop114" />
    </radialGradient>
    <linearGradient
       id="grad_24"
       x2="1">
      <stop
         offset="0"
         stop-color="#000000"
         stop-opacity="1"
         id="stop117" />
      <stop
         offset="1"
         stop-color="#2B2B2B"
         stop-opacity="1"
         id="stop119" />
    </linearGradient>
    <radialGradient
       id="grad_25"
       cx="0.205"
       cy="0.8641"
       r="1.12333">
      <stop
         offset="0"
         stop-color="#282828"
         stop-opacity="1"
         id="stop122" />
      <stop
         offset="1"
         stop-color="#000000"
         stop-opacity="1"
         id="stop124" />
    </radialGradient>
    <radialGradient
       id="grad_26"
       cx="0.4521"
       cy="0.8076000000000001"
       r="1.04988">
      <stop
         offset="0"
         stop-color="#282828"
         stop-opacity="1"
         id="stop127" />
      <stop
         offset="1"
         stop-color="#000000"
         stop-opacity="1"
         id="stop129" />
    </radialGradient>
    <linearGradient
       id="grad_27"
       x2="1">
      <stop
         offset="0"
         stop-color="#2B2B2B"
         stop-opacity="1"
         id="stop132" />
      <stop
         offset="1"
         stop-color="#000000"
         stop-opacity="1"
         id="stop134" />
    </linearGradient>
    <linearGradient
       id="grad_28"
       x2="1">
      <stop
         offset="0"
         stop-color="#000000"
         stop-opacity="1"
         id="stop137" />
      <stop
         offset="1"
         stop-color="#2B2B2B"
         stop-opacity="1"
         id="stop139" />
    </linearGradient>
    <radialGradient
       id="grad_29"
       cx="0.055099999999999996"
       cy="0.4891"
       r="1.22837">
      <stop
         offset="0"
         stop-color="#DFDFDF"
         stop-opacity="1"
         id="stop142" />
      <stop
         offset="1"
         stop-color="#252525"
         stop-opacity="1"
         id="stop144" />
    </radialGradient>
    <radialGradient
       id="grad_30"
       cx="0.188"
       cy="0.5142"
       r="1.0556">
      <stop
         offset="0"
         stop-color="#FF0000"
         stop-opacity="1"
         id="stop147" />
      <stop
         offset="1"
         stop-color="#000000"
         stop-opacity="1"
         id="stop149" />
    </radialGradient>
    <radialGradient
       id="grad_31"
       cx="0.9376000000000001"
       cy="0.3144"
       r="1.21888">
      <stop
         offset="0"
         stop-color="#000000"
         stop-opacity="0"
         id="stop152" />
      <stop
         offset="1"
         stop-color="#000000"
         stop-opacity="0"
         id="stop154" />
    </radialGradient>
    <radialGradient
       id="grad_32"
       cx="0.7404000000000001"
       cy="0.6873"
       r="0.9625199999999999">
      <stop
         offset="0"
         stop-color="#EB0000"
         stop-opacity="1"
         id="stop157" />
      <stop
         offset="1"
         stop-color="#420000"
         stop-opacity="1"
         id="stop159" />
    </radialGradient>
    <linearGradient
       id="grad_33"
       x2="1">
      <stop
         offset="0"
         stop-color="#FFFFFF"
         stop-opacity="1"
         id="stop162" />
      <stop
         offset="1"
         stop-color="#7F7F7F"
         stop-opacity="1"
         id="stop164" />
    </linearGradient>
    <linearGradient
       id="grad_34"
       x2="1">
      <stop
         offset="0"
         stop-color="#FFFFFF"
         stop-opacity="1"
         id="stop167" />
      <stop
         offset="1"
         stop-color="#7F7F7F"
         stop-opacity="1"
         id="stop169" />
    </linearGradient>
    <linearGradient
       id="grad_35"
       x2="1">
      <stop
         offset="0"
         stop-color="#FFFFFF"
         stop-opacity="1"
         id="stop172" />
      <stop
         offset="1"
         stop-color="#7F7F7F"
         stop-opacity="1"
         id="stop174" />
    </linearGradient>
    <linearGradient
       id="grad_36"
       x2="1">
      <stop
         offset="0"
         stop-color="#FFFFFF"
         stop-opacity="1"
         id="stop177" />
      <stop
         offset="1"
         stop-color="#7F7F7F"
         stop-opacity="1"
         id="stop179" />
    </linearGradient>
    <radialGradient
       id="grad_37"
       cx="0.08689999999999999"
       cy="0.1433"
       r="1.18703">
      <stop
         offset="0"
         stop-color="#999999"
         stop-opacity="1"
         id="stop182" />
      <stop
         offset="1"
         stop-color="#1C1C1C"
         stop-opacity="1"
         id="stop184" />
    </radialGradient>
    <radialGradient
       id="grad_38"
       cx="0.3395"
       cy="0.1736"
       r="1.07432">
      <stop
         offset="0"
         stop-color="#FF9400"
         stop-opacity="1"
         id="stop187" />
      <stop
         offset="1"
         stop-color="#995900"
         stop-opacity="1"
         id="stop189" />
    </radialGradient>
    <radialGradient
       id="grad_39"
       cx="0.30260000000000004"
       cy="0.24600000000000002"
       r="0.9802">
      <stop
         offset="0"
         stop-color="#1A661B"
         stop-opacity="1"
         id="stop192" />
      <stop
         offset="1"
         stop-color="#000000"
         stop-opacity="1"
         id="stop194" />
    </radialGradient>
  </defs>
  <!-- Exported by Scratch - http://scratch.mit.edu/ -->
  <g
     id="ID0.0238239960744977">
    <path
       id="ID0.796381994150579"
       d="M 292.450 225.850 C 296.672 223.449 306.444 227.234 312.300 230.700 C 317.407 233.721 324.375 238.686 324.050 244.100 C 323.781 248.505 316.152 250.126 311.500 250.600 C 306.607 251.118 301.364 249.757 298.200 246.400 C 295.930 244.782 299.010 241.356 298.400 238.650 C 297.345 234.041 289.722 227.424 292.450 225.850 Z "
       transform="matrix(-0.45536667108535767, 0.32222384214401245, 0.4214959740638733, 0.7226858139038086, 72.1, -178)"
       stroke-linecap="round"
       stroke="none"
       fill="url(#grad_1)" />
    <g
       id="ID0.7700450667180121">
      <path
         id="ID0.8510001082904637"
         d="M 185.250 203.250 C 188.235 200.418 194.820 199.830 197.679 202.777 C 201.522 206.736 200.837 213.612 200.500 219.125 C 200.023 226.595 199.962 234.250 195.750 240 C 193.576 242.961 186.882 243.522 184.700 240.500 C 180.678 234.591 181.151 226.381 181.250 219.125 C 181.324 213.675 181.462 207.157 185.250 203.250 Z "
         transform="matrix(1.0359489917755127, 0.02207113429903984, -0.02207113429903984, 1.0359489917755127, -155.35, -102.5)"
         stroke-linecap="round"
         stroke="none"
         fill="url(#grad_2)" />
      <path
         id="path201"
         d="M 326.125 266 C 329.956 265.529 335.136 264.590 337.600 267.550 C 342.071 272.941 346.356 280.969 343.850 287.500 C 341.526 294.102 333.001 297.262 326.125 298.750 C 321.993 299.644 317.383 296.916 314.372 293.951 C 311.370 290.994 309.500 286.893 309.500 282.375 C 309.500 277.857 311.363 273.764 314.372 270.799 C 317.382 267.835 321.930 266.516 326.125 266 Z "
         transform="matrix(0.21091827750205994, 0.9796565771102905, 0.9796565771102905, -0.21091827750205994, -308.1, -153.1)"
         stroke-linecap="round"
         stroke="none"
         fill="url(#grad_3)" />
    </g>
  </g>
  <g
     id="ID0.6118605998344719">
    <path
       id="ID0.49002937227487564"
       d="M 297 208.250 C 298.714 210.919 295.742 214.839 296.500 218 C 297.244 221.105 302.601 224.905 301.050 226.550 C 299.476 228.280 293.340 226.824 290.250 224.750 C 288.354 223.476 289.004 220.374 289 218 C 288.997 214.677 288.081 210.731 290.099 208.103 C 291.480 206.305 295.698 206.256 297 208.250 Z "
       transform="matrix(0.7173514366149902, -0.7380232810974121, 0.7380232810974121, 0.7173514366149902, -347.7, 254.55)"
       stroke-linecap="round"
       stroke="none"
       fill="url(#grad_4)" />
    <g
       id="ID0.9790564002469182">
      <path
         id="ID0.37355608120560646"
         d="M 214.150 251.500 C 218.507 254.902 223.407 262.282 220.450 267 C 216.418 273.440 206.611 275.041 199.100 274.250 C 196.087 274.278 198.064 268.707 198.400 265.400 C 198.858 260.998 198.297 255.446 201.600 252.500 C 204.693 249.741 210.778 248.957 214.150 251.500 Z "
         transform="matrix(-0.7904707789421082, 1.09734046459198, 0.4778430461883545, 0.34421491622924805, 80.4, -153.25)"
         stroke-linecap="round"
         stroke="none"
         fill="url(#grad_5)" />
      <path
         id="path207"
         d="M 326.125 266 C 330.736 266.119 336.357 267.098 339.200 270.750 C 342.097 274.764 343.205 281.237 340.800 285.600 C 337.770 291.006 330.865 293.306 324.850 295.300 C 321.511 296.406 317.187 296.059 314.372 293.951 C 311.400 291.720 311.841 287.095 309.500 284.400 C 307.839 282.484 302.210 283.232 303.050 281.100 C 304.646 276.432 310.098 273.499 314.372 270.799 C 317.946 268.543 321.910 265.924 326.125 266 Z "
         transform="matrix(-0.8029430508613586, 1.681774616241455, -0.8746376633644104, -0.41758522391319275, 533.9, -267.15)"
         stroke-linecap="round"
         stroke="none"
         fill="url(#grad_6)" />
    </g>
    <path
       id="path210"
       d="M 297 208.250 C 298.714 210.919 295.606 214.875 296.500 218 C 297.427 221.241 303.370 225.251 301.950 226.550 C 300.269 228.087 293.643 225.846 290.450 223.550 C 288.543 222.367 288.449 219.506 288.400 217.300 C 288.406 214.190 287.962 210.404 290.099 208.103 C 291.663 206.419 295.698 206.256 297 208.250 Z "
       transform="matrix(1.0059785842895508, -0.21743570268154144, 0.21743570268154144, 1.0059785842895508, -325.7, 37.25)"
       stroke-linecap="round"
       stroke="none"
       fill="url(#grad_7)" />
    <path
       id="path212"
       d="M 297.250 210.250 C 298.688 212.314 296.441 215.356 296.500 218 C 296.604 222.761 299.727 229.675 298 231.700 C 296.582 233.367 291.979 228.283 290.200 225.400 C 288.905 223.265 289.020 220.453 289 218 C 288.973 214.683 287.815 210.447 290.099 208.103 C 291.771 206.397 295.907 208.015 297.250 210.250 Z "
       transform="matrix(1.0253154039382935, -0.08943973481655121, 0.08943973481655121, 1.0253154039382935, -301.75, -18.5)"
       stroke-linecap="round"
       stroke="none"
       fill="url(#grad_8)" />
  </g>
  <path
     id="path215"
     d="M 186.750 198.500 C 188.808 195.559 195.520 196.825 197.450 199.850 C 200.926 205.296 199.846 212.632 199.450 219.050 C 199.273 226.145 199.857 234.210 195.750 240 C 193.619 243.003 186.609 243.648 184.700 240.500 C 181.117 234.591 182.670 226.688 182.850 219.750 C 183.358 212.585 182.636 204.379 186.750 198.500 Z "
     transform="matrix(1.2923331260681152, 0.25772327184677124, -0.20265033841133118, 1.01617431640625, -144.25, -98.65)"
     stroke-linecap="round"
     stroke="none"
     fill="url(#grad_9)" />
  <path
     id="path217"
     d="M 186.350 198.950 C 191.449 197.210 199.069 200.128 201.400 205.100 C 205.217 212.840 202.515 222.496 201.900 231.150 C 201.597 235.406 202.349 241.114 198.900 243.350 C 193.769 246.717 186.588 246.096 180.750 244.950 C 175.447 243.908 166.800 242.576 166.550 237.250 C 165.856 228.080 174.371 220.776 178.650 212.700 C 181.106 208.063 181.368 200.656 186.350 198.950 Z "
     transform="matrix(0.9562293887138367, -0.1615237146615982, 0.21398015320301056, 1.2667745351791382, -175.25, -39.9)"
     stroke-linecap="round"
     stroke="none"
     fill="url(#grad_10)" />
  <path
     id="ID0.17010685242712498"
     d="M 318.750 212 C 325.566 211.831 331.430 204.834 338 206 C 341.531 206.610 342.123 212.532 341.500 216 C 340.695 220.450 338.267 224.920 334.750 227.500 C 329.497 231.120 323.068 233.493 316.750 233.500 C 312.142 233.505 307.964 230.474 304.600 227.550 C 301.491 225.037 299.171 221.439 298 217.750 C 296.918 214.337 294.390 207.935 297.750 207 C 304.570 205.112 311.564 212.178 318.750 212 Z "
     transform="matrix(1.0361840724945068, 0, 0, 1.0361840724945068, -259.5, -72)"
     stroke-linecap="round"
     stroke="none"
     fill="url(#grad_11)" />
  <path
     id="path220"
     d="M 186.750 198.500 C 188.808 195.559 195.520 196.825 197.450 199.850 C 200.926 205.296 199.846 212.632 199.450 219.050 C 199.273 226.145 199.857 234.210 195.750 240 C 193.619 243.003 186.609 243.648 184.700 240.500 C 181.117 234.591 182.670 226.688 182.850 219.750 C 183.358 212.585 182.636 204.379 186.750 198.500 Z "
     transform="matrix(1.3515065908432007, -0.1371311992406845, 0.10459980368614197, 1.0308910608291626, -198.75, -20.5)"
     stroke-linecap="round"
     stroke="none"
     fill="url(#grad_12)" />
  <path
     id="path222"
     d="M 187 197.800 C 191.420 195.560 199.050 197.912 201.150 202.400 C 205.407 211.496 203.282 222.424 203.100 232.450 C 203.029 236.401 203.835 241.995 200.450 244.050 C 195.876 246.829 189.538 245.111 184.150 244.300 C 178.977 243.317 170.476 243.924 169.250 238.750 C 167.287 230.453 174.121 222.116 177.450 214.450 C 179.996 208.587 181.250 200.713 187 197.800 Z "
     transform="matrix(1.003416657447815, -0.25852009654045105, 0.3182245194911957, 1.2351526021957397, -174.55, -8.1)"
     stroke-linecap="round"
     stroke="none"
     fill="url(#grad_13)" />
  <g
     id="ID0.8362107570283115">
    <g
       id="ID0.36512124724686146">
      <path
         id="ID0.3957416145130992"
         d="M 328.900 205.300 C 361.806 199.558 397.929 199.785 429 212.050 C 439.692 216.280 435.499 234.275 433.650 245.300 C 432.242 253.675 425.520 259.537 420.600 266.050 C 415.906 272.259 411.935 278.671 405.800 282.950 C 400.718 286.491 394.586 288.907 388.600 288.900 C 368.225 288.534 346.378 290.104 328 281.850 C 320.102 278.303 321.020 265.896 318.750 257.550 C 316.508 249.304 312.463 240.634 314.450 232.250 C 316.050 222.167 318.801 207.062 328.900 205.300 Z "
         transform="matrix(-0.5983027219772339, -0.0327860563993454, -0.0510830283164978, 0.8731392621994019, 305.25, -79)"
         stroke="none"
         fill="url(#grad_14)" />
      <path
         id="ID0.9990375633351505"
         d="M 296.550 211.450 C 301.187 211.101 307.110 212.073 308.900 214.850 C 310.537 216.525 305.528 218.796 303.400 220.350 C 299.756 223.012 295.586 225.419 291.100 226.500 C 287.440 227.984 283.594 228.161 279.450 227.900 C 275.452 227.656 270.021 228.821 267.800 225.800 C 265.441 223.688 267.572 218.823 270.105 217.428 C 277.788 213.236 287.533 212.040 296.550 211.450 Z "
         transform="matrix(0.7302215695381165, 0, 0, 0.7067115306854248, -145.35, -60.75)"
         stroke-width="2"
         stroke="#0E380E"
         fill="#000000" />
      <path
         id="ID0.23507289122790098"
         d="M 257 151.950 C 257.697 151.684 258.594 152.107 259.400 152.350 C 260.152 152.509 262.062 152.412 261.650 153.150 C 260.383 155.349 257.159 156.194 255.650 158.350 C 253.610 161.586 252.414 165.310 251.250 168.950 C 250.261 172.041 249.476 175.153 249.300 178.300 C 249.123 181.452 249.519 184.598 250.200 187.650 C 250.678 189.767 251.658 191.435 252.450 193.150 C 252.923 194.108 254.713 195.726 253.950 195.650 C 251.441 195.384 248.317 194.438 246 192.700 C 244.020 191.172 242.838 188.737 241.650 186.300 C 240.461 183.850 239.056 181.176 239.350 178.450 C 239.880 173.571 242.193 168.916 244.400 164.600 C 246.179 161.121 248.702 157.981 251.500 155.250 C 253.045 153.748 255.010 152.712 257 151.950 Z "
         transform="matrix(1.0074927806854248, 0.7837954163551331, -1.1895041465759277, 1.5289918184280396, 23.4, -343.75)"
         stroke-linecap="round"
         stroke="none"
         fill="url(#grad_15)" />
    </g>
    <g
       id="ID0.2853962006047368">
      <path
         id="path228"
         d="M 256.650 152.400 C 257.235 152.014 258.079 152.497 258.700 152.600 C 259.917 152.915 262.290 152.669 262.150 153.650 C 261.906 155.304 259.055 156.326 257.950 158.100 C 256.469 160.531 255.129 163.192 254.500 166.100 C 253.458 170.766 252.884 175.567 253.050 180.400 C 253.151 184.237 253.837 188.155 255.200 191.700 C 255.929 193.529 259.617 194.991 258.950 196.300 C 258.229 197.714 254.612 197.451 252.500 197 C 250.910 196.657 249.557 195.632 248.700 194.350 C 246.902 191.657 245.112 188.874 244.900 185.750 C 244.463 179.298 245.442 172.545 246.950 166.050 C 247.624 163.007 249.443 160.267 251.350 157.550 C 252.764 155.536 254.582 153.768 256.650 152.400 Z "
         transform="matrix(1.0074927806854248, -0.7837954163551331, -1.1895041465759277, -1.528991937637329, 16.4, 591.9)"
         stroke-linecap="round"
         stroke="none"
         fill="url(#grad_16)" />
      <g
         id="ID0.8327080295421183">
        <path
           id="ID0.7069991170428693"
           d="M 232.350 168.200 C 235.264 167.793 238.600 167.879 241 169.500 C 243.174 170.904 244.230 173.760 244.600 176.300 C 244.969 178.830 244.098 181.456 243.200 183.850 C 242.550 185.584 241 189.088 240.150 188.500 C 238.959 187.695 239.647 183.467 239.100 181.050 C 238.905 180.186 237.954 178.496 237.850 178.700 C 237.746 178.904 238.666 181.071 238.450 182.250 C 237.879 185.376 236.295 191.464 235.500 191.500 C 234.730 191.464 234.564 185.267 234 182.250 C 233.859 181.495 233.613 179.844 233.450 180.150 C 233.248 180.560 233.299 182.683 233.300 183.950 C 233.166 186.033 233.971 190.422 233.050 190.200 C 232.087 189.983 229.850 185.625 228.850 182.950 C 228.401 181.749 229.046 179.257 228.900 179.100 C 228.750 178.955 228.118 180.962 228 181.950 C 227.802 183.600 228.759 187.770 228.100 187.050 C 226.944 185.794 224.280 181.095 223.950 177.750 C 223.756 175.449 225.152 173.171 226.650 171.450 C 228.097 169.788 230.186 168.502 232.350 168.200 Z "
           transform="matrix(1.4715505838394165, 0, 0, 1.4241728782653809, -288.1, -133.55)"
           stroke-linecap="round"
           stroke="none"
           fill="url(#grad_17)" />
        <path
           id="ID0.0063121928833425045"
           d="M 235.650 167.550 C 237.674 166.391 240.614 166.300 242.700 167.450 C 245.407 168.942 247.872 171.637 248.500 174.700 C 249.226 178.244 247.169 183.589 246.350 185.350 C 245.932 186.248 246.234 182.052 245.750 180.500 C 245.397 179.366 244.511 177.275 243.900 177.450 C 243.274 177.623 243.736 179.986 243.400 181.200 C 242.831 183.255 241.892 186.911 241.200 187.200 C 240.559 187.479 240.732 184.048 240.350 182.500 C 240.031 181.207 239.718 178.688 239.100 178.700 C 238.475 178.712 238.063 181.223 237.800 182.550 C 237.469 184.221 238.063 187.745 237.400 187.750 C 236.681 187.723 235.175 184.351 234.600 182.500 C 234.145 181.034 234.944 178.503 234.300 177.900 C 233.849 177.481 232.839 179.405 232.450 180.350 C 231.996 181.458 232.223 184.522 231.800 183.750 C 230.699 181.823 228.715 177.910 229.400 174.950 C 230.122 171.832 232.816 169.130 235.650 167.550 Z "
           transform="matrix(1.3471205234527588, 0.00866132602095604, -0.008949460461735725, 1.3037489652633667, -265.3, -113)"
           stroke-linecap="round"
           stroke="none"
           fill="url(#grad_18)" />
      </g>
    </g>
  </g>
  <path
     id="ID0.920088273473084"
     d="M 248.100 289.550 C 258.167 284.012 268.810 278.303 280.150 276.750 C 285.157 276.064 289.853 280.713 293.350 284.250 C 296.233 286.209 297.864 289.384 298.550 292.600 C 299.285 296.062 299.358 299.681 298.450 303.250 C 298.106 304.847 295.795 305.237 294.250 305.750 C 291.239 306.742 288.699 307.347 286.100 307.400 C 276.281 307.899 266.327 308.294 257.100 307.400 C 252.133 306.915 246.752 306.346 242.600 303.600 C 240.886 302.465 240.631 299.399 241.200 297.400 C 242.653 294.233 245.153 291.168 248.100 289.550 Z "
     transform="matrix(0.724340558052063, 0, 0, 0.9222452044487, -163.2, -40.5)"
     stroke-linecap="round"
     stroke="none"
     fill="url(#grad_19)" />
  <path
     id="path236"
     d="M 261.300 275.750 C 267.582 273.037 275.424 271.814 281.800 274.300 C 288.157 276.779 291.569 284.148 296.350 289.300 C 297.353 290.588 298.210 291.445 298.550 292.950 C 299.386 296.692 300.326 300.765 299.250 304.450 C 298.738 306.193 296.176 306.946 294.150 307.350 C 286.768 308.658 279.072 309.746 271.500 309.500 C 262.600 309.194 252.744 309.849 244.600 305.650 C 241.292 303.810 241.995 297.997 242.200 294.050 C 242.292 292.297 243.972 290.918 245.250 289.550 C 250.379 284.780 254.809 278.552 261.300 275.750 Z "
     transform="matrix(0.7433995008468628, 0, 0, 0.946511447429657, -115.3, -43.65)"
     stroke-linecap="round"
     stroke="none"
     fill="url(#grad_20)" />
  <g
     id="ID0.4760184567421675">
    <path
       id="path238"
       d="M 185.250 203.250 C 188.235 200.418 194.820 199.830 197.679 202.777 C 201.522 206.736 200.837 213.612 200.500 219.125 C 200.023 226.595 199.962 234.250 195.750 240 C 193.576 242.961 186.882 243.522 184.700 240.500 C 180.678 234.591 181.151 226.381 181.250 219.125 C 181.324 213.675 181.462 207.157 185.250 203.250 Z "
       transform="matrix(0.9662808775901794, -0.3741372525691986, 0.3741372525691986, 0.9662808775901794, -159, -15.1)"
       stroke-linecap="round"
       stroke="none"
       fill="url(#grad_21)" />
    <g
       id="ID0.5268762949854136">
      <path
         id="path240"
         d="M 326.125 266 C 330.329 265.462 336.261 264.359 338.800 267.800 C 342.946 273.407 345.433 281.983 342.850 288.550 C 340.311 294.517 332.490 297.512 326.125 298.750 C 321.975 299.557 317.383 296.916 314.372 293.951 C 311.370 290.994 309.500 286.893 309.500 282.375 C 309.500 277.857 311.363 273.764 314.372 270.799 C 317.382 267.835 321.932 266.536 326.125 266 Z "
         transform="matrix(0.09805026650428772, 1.0315345525741577, -1.0315345525741577, 0.09805026650428772, 359.95, -253.7)"
         stroke-linecap="round"
         stroke="none"
         fill="url(#grad_22)" />
      <path
         id="path242"
         d="M 292.450 225.850 C 296.672 223.449 306.444 227.234 312.300 230.700 C 317.407 233.721 324.375 238.686 324.050 244.100 C 323.781 248.505 316.152 250.126 311.500 250.600 C 306.607 251.118 301.364 249.757 298.200 246.400 C 295.930 244.782 299.010 241.356 298.400 238.650 C 297.345 234.041 289.722 227.424 292.450 225.850 Z "
         transform="matrix(0.47364097833633423, 0.2947053015232086, -0.3779805302619934, 0.7463673949241638, 50.25, -171.7)"
         stroke-linecap="round"
         stroke="none"
         fill="url(#grad_23)" />
    </g>
  </g>
  <g
     id="ID0.13084215624257922">
    <path
       id="path246"
       d="M 297 208.250 C 298.714 210.919 295.742 214.839 296.500 218 C 297.244 221.105 302.601 224.905 301.050 226.550 C 299.476 228.280 293.340 226.824 290.250 224.750 C 288.354 223.476 289.004 220.374 289 218 C 288.997 214.677 288.081 210.731 290.099 208.103 C 291.480 206.305 295.698 206.256 297 208.250 Z "
       transform="matrix(-1.0321587324142456, 0.09124516695737839, 0.09124516695737839, 1.0321587324142456, 400.45, -50.6)"
       stroke-linecap="round"
       stroke="none"
       fill="url(#grad_24)" />
    <g
       id="g252">
      <path
         id="path248"
         d="M 214.150 251.500 C 218.507 254.902 223.025 262.060 220.450 267 C 216.782 274.042 206.936 278.924 199.800 278.250 C 195.911 278.124 198.100 269.936 198.400 265.400 C 198.693 260.984 198.297 255.446 201.600 252.500 C 204.693 249.741 210.778 248.957 214.150 251.500 Z "
         transform="matrix(-0.5658270120620728, 1.2384322881698608, 0.5392822623252869, 0.24639254808425903, 103.85, -155)"
         stroke-linecap="round"
         stroke="none"
         fill="url(#grad_25)" />
      <path
         id="path250"
         d="M 326.125 266 C 330.736 266.119 336.357 267.098 339.200 270.750 C 342.097 274.764 343.205 281.237 340.800 285.600 C 337.770 291.006 330.865 293.306 324.850 295.300 C 321.511 296.406 317.187 296.059 314.372 293.951 C 311.400 291.720 311.841 287.095 309.500 284.400 C 307.839 282.484 302.210 283.232 303.050 281.100 C 304.646 276.432 310.098 273.499 314.372 270.799 C 317.946 268.543 321.910 265.924 326.125 266 Z "
         transform="matrix(-0.4637371003627777, 1.818038821220398, -0.945504367351532, -0.24117493629455566, 529.35, -356.25)"
         stroke-linecap="round"
         stroke="none"
         fill="url(#grad_26)" />
    </g>
    <path
       id="path254"
       d="M 297 208.250 C 298.714 210.919 296.465 214.749 296.500 218 C 296.555 223.133 298.999 231.493 297.300 233.450 C 296.018 234.939 291.926 228.505 290.200 225.400 C 289.057 223.165 289.020 220.453 289 218 C 288.973 214.683 288.081 210.731 290.099 208.103 C 291.480 206.305 295.698 206.256 297 208.250 Z "
       transform="matrix(0.8140506744384766, 0.6410917639732361, -0.6410917639732361, 0.8140506744384766, -1.3, -183.7)"
       stroke-linecap="round"
       stroke="none"
       fill="url(#grad_27)" />
    <path
       id="path256"
       d="M 297 208.250 C 298.714 210.919 295.606 214.875 296.500 218 C 297.427 221.241 303.392 225.234 301.950 226.550 C 300.232 228.118 293.417 226.038 290.050 223.750 C 288.250 222.523 288.448 219.518 288.400 217.300 C 288.465 214.193 287.962 210.404 290.099 208.103 C 291.663 206.419 295.698 206.256 297 208.250 Z "
       transform="matrix(-0.9245551824569702, -0.4678407311439514, -0.4678407311439514, 0.9245551824569702, 477.05, 137.9)"
       stroke-linecap="round"
       stroke="none"
       fill="url(#grad_28)" />
  </g>
  <g
     id="ID0.6575406552292407">
    <g
       id="ID0.6830037501640618">
      <path
         id="ID0.5512879472225904"
         d="M 284.500 91.500 C 289.742 91.500 294.492 93.475 297.931 96.666 C 301.371 99.856 303.500 104.262 303.500 109.125 C 303.500 113.988 301.463 118.720 297.931 121.584 C 294.596 124.289 289.607 123.759 285.350 123.750 C 280.545 123.759 274.901 124.454 271.069 121.584 C 267.431 118.858 265.500 113.988 265.500 109.125 C 265.500 104.262 267.629 99.856 271.069 96.666 C 274.508 93.475 279.258 91.500 284.500 91.500 Z "
         transform="matrix(1.4320993423461914, 0, 0, 1.3836708068847656, -357.6, -77.15)"
         stroke="none"
         fill="#000000" />
      <g
         id="ID0.9540001675486565">
        <g
           id="ID0.5760217634961009">
          <path
             id="ID0.33873104536905885"
             d="M 355.100 145.600 C 369.227 148.972 376.165 167.328 379.300 181.100 C 383.493 199.552 382.529 219.696 377.350 237.900 C 375.182 245.523 366.737 252.869 358.700 253.250 C 349.849 253.342 344.043 242.839 336.050 239.050 C 329.038 235.718 321.166 233.719 313.850 231.900 C 300.938 228.709 287.935 225.553 274.750 223.900 C 271.454 223.487 268.650 228.784 268.100 226.150 C 265.550 215.103 263.419 202.795 267.600 192.350 C 272.759 179.464 281.978 166.785 294.250 160.300 C 313.047 150.371 335.038 140.610 355.100 145.600 Z "
             transform="matrix(0.562657356262207, 0, 0, 0.562657356262207, -129.85, -51.75)"
             stroke="none"
             fill="url(#grad_29)" />
          <path
             id="ID0.3022490623407066"
             d="M 251.200 197.100 C 255.342 194.763 258.059 188.310 262.700 188.850 C 266.284 189.085 267.438 194.857 267.650 198.650 C 267.844 202.142 266.129 205.881 263.671 208.370 C 261.214 210.859 257.820 212.400 254.075 212.400 C 250.330 212.400 246.756 210.981 244.479 208.370 C 242.500 206.097 241.567 201.963 243.250 199.350 C 244.556 196.955 248.802 198.452 251.200 197.100 Z "
             transform="matrix(0.9778072237968445, 0, 0, 0.9778072237968445, -193.05, -131.3)"
             stroke-width="2"
             stroke="url(#grad_31)"
             fill="url(#grad_30)" />
        </g>
        <path
           id="ID0.04253093432635069"
           d="M 326 117.750 C 326.324 115.102 328.213 120.904 328.750 122.750 C 329.567 126.317 330.084 130.018 330 133.750 C 329.928 137.379 329.243 141.014 328.250 144.500 C 327.704 146.424 325.655 152.180 325.500 149.500 C 324.546 138.991 324.705 128.342 326 117.750 Z "
           transform="matrix(0.4857945144176483, 0, 0, 0.4857945144176483, -78.45, 7.5)"
           stroke-linecap="round"
           stroke="none"
           fill="#333434" />
        <path
           id="path264"
           d="M 326 117.750 C 326.324 115.102 328.213 120.904 328.750 122.750 C 329.567 126.317 330.084 130.018 330 133.750 C 329.928 137.379 329.243 141.014 328.250 144.500 C 327.704 146.424 325.655 152.180 325.500 149.500 C 324.546 138.991 324.705 128.342 326 117.750 Z "
           transform="matrix(0.4857945144176483, 0, 0, 0.5078761577606201, -81.45, 3.9)"
           stroke-linecap="round"
           stroke="none"
           fill="#333434" />
        <path
           id="path266"
           d="M 326 117.750 C 326.324 115.102 328.213 120.904 328.750 122.750 C 329.567 126.317 330.084 130.018 330 133.750 C 329.928 137.379 329.243 141.014 328.250 144.500 C 327.704 146.424 325.655 152.180 325.500 149.500 C 324.546 138.991 324.705 128.342 326 117.750 Z "
           transform="matrix(0.4857945144176483, 0, 0, 0.5593997240066528, -84.9, -4.1)"
           stroke-linecap="round"
           stroke="none"
           fill="#333434" />
      </g>
    </g>
    <path
       id="path270"
       d="M 254.650 196.950 C 257.728 195.252 258.224 188.903 261.150 189.450 C 264.729 189.754 267.246 194.847 267.650 198.650 C 268.021 202.126 266.129 205.881 263.671 208.370 C 261.214 210.859 257.820 212.400 254.075 212.400 C 250.330 212.400 246.888 210.862 244.479 208.370 C 242.444 206.261 240.091 201.932 241.950 199.500 C 244.368 196.385 250.811 198.977 254.650 196.950 Z "
       transform="matrix(-0.23007148504257202, -0.06882011145353317, -0.2258562594652176, 0.7550566792488098, 126.7, -74.85)"
       stroke="none"
       fill="url(#grad_32)" />
  </g>
  <g
     id="ID0.5225828438997269">
    <path
       id="ID0.4724361961707473"
       d="M 194.700 217.700 L 199.250 225 L 190.500 225 L 194.700 217.700 Z "
       transform="matrix(0.8331792950630188, 0.5117805600166321, -0.5117805600166321, 0.8331792950630188, 9.65, -205.15)"
       stroke-linecap="round"
       stroke="none"
       fill="url(#grad_33)" />
    <path
       id="path274"
       d="M 194.700 217.700 L 199.250 225 L 190.500 225 L 194.700 217.700 Z "
       transform="matrix(0.9667972326278687, 0.14632223546504974, -0.14632223546504974, 0.9667972326278687, -121.5, -170)"
       stroke-linecap="round"
       stroke="none"
       fill="url(#grad_34)" />
    <path
       id="path276"
       d="M 194.700 217.700 L 199.250 225 L 190.500 225 L 194.700 217.700 Z "
       transform="matrix(0.9481077790260315, 0.23916234076023102, -0.23916234076023102, 0.9481077790260315, -85.1, -181.85)"
       stroke-linecap="round"
       stroke="none"
       fill="url(#grad_35)" />
    <path
       id="path278"
       d="M 194.700 217.700 L 199.250 225 L 190.900 226.300 L 194.700 217.700 Z "
       transform="matrix(0.97641921043396, 0.05208335444331169, -0.05208335444331169, 0.97641921043396, -156.6, -156.75)"
       stroke-linecap="round"
       stroke="none"
       fill="url(#grad_36)" />
    <path
       id="ID0.5120489443652332"
       d="M 166.750 182.500 C 171.435 183.801 176.218 185.512 180.950 187 C 184.274 188.047 187.873 191.561 191.350 190.350 C 194.415 189.108 193.152 183.101 196.050 181.350 C 197.815 180.282 201.205 181.547 201.950 183.500 C 203.674 188.039 203.548 193.673 202.250 198.650 C 201.762 200.726 199.313 202.069 197.050 202.850 C 191.488 204.746 185.554 205.840 179.650 205.850 C 174.494 205.858 169.406 204.933 164.450 202.900 C 158.188 200.325 152.042 196.835 147.250 192.050 C 144.486 189.291 142.881 185.115 142.800 181.200 C 142.861 179.354 145.293 177.549 147.200 177.650 C 153.898 178.004 160.288 180.704 166.750 182.500 Z "
       transform="matrix(0.9749380946159363, -0.07485078275203705, 0.07485078275203705, 0.9749380946159363, -136.35, -89.6)"
       stroke-linecap="round"
       stroke="none"
       fill="url(#grad_37)" />
  </g>
  <g
     id="ID0.4605194767937064">
    <path
       id="ID0.5427658348344266"
       d="M 337.750 154.600 C 342.129 153.372 332.953 168.636 332.300 175.750 C 331.883 180.393 337.820 188.423 333.250 189.750 C 324.013 192.421 304.019 190.419 304.650 183.300 C 305.606 172.935 328.440 157.110 337.750 154.600 Z "
       transform="matrix(0.5848019123077393, 0.05699066072702408, -0.05699066072702408, 0.5848019123077393, -112.9, -107.05)"
       stroke-linecap="round"
       stroke="none"
       fill="url(#grad_38)" />
    <path
       id="ID0.5606021163985133"
       d="M 257.550 150.200 C 268.046 150.718 278.874 153.039 288.200 157.800 C 293.333 160.391 296.801 165.877 298.850 171.200 C 300.803 176.305 298.754 182.222 299.500 187.600 C 299.771 189.551 300.661 191.393 301.550 193.150 C 302.587 195.195 307.541 198.047 305.600 198.950 C 299.918 201.421 292.425 201.444 286.300 199.900 C 281.933 198.799 280.027 192.326 275.700 191.500 C 266.243 189.694 256.365 192.747 246.800 192.350 C 239.349 192.041 231.915 190.949 224.600 189.400 C 219.704 188.305 214.252 187.575 210.300 184.450 C 208.987 183.410 211.841 181.530 212.950 180.400 C 213.417 179.833 214.286 180.442 214.850 179.550 C 217.108 175.984 218.127 171.183 220.800 167.650 C 224.363 162.946 227.771 157.644 232.850 155.150 C 240.562 151.575 249.388 149.799 257.550 150.200 Z "
       transform="matrix(0.8490680456161499, 0.002295577898621559, -0.002916002180427313, 1.0785459280014038, -163, -145.4)"
       stroke="none"
       fill="url(#grad_39)" />
  </g>
</svg>
